<svg id="mini-logo" xmlns="http://www.w3.org/2000/svg" width="43.091" height="31.914" viewBox="0 0 43.091 31.914">
  <path id="Path_3406" data-name="Path 3406" d="M19.135,3.868,23.149,26.9c.42,2.412-.543,4.887-1.9,4.887h-1.7c-1.307,0-2.464-1.58-2.859-3.9L12.94,5.835C12.448,2.947,13.6,0,15.227,0h1.055C17.582,0,18.734,1.561,19.135,3.868Z" transform="translate(19.843)" fill="#f8285a"/>
  <path id="Path_3407" data-name="Path 3407" d="M13.49,20.412,10.45,2.233C10.227.9,9.569,0,8.823,0,8.1,0,7.5,1.062,7.462,2.415L7.1,15.643a27.3,27.3,0,0,0,.325,5.039l1.353,8.444c.253,1.58,1.032,2.663,1.916,2.663h.53c.87,0,1.641-1.051,1.906-2.6l.348-2.04A20.557,20.557,0,0,0,13.49,20.412Z" transform="translate(8.382)" fill="#e9e9e9"/>
  <path id="Path_3408" data-name="Path 3408" d="M6.837,0H8.052c1.618,0,2.773,2.919,2.291,5.793l-3.719,22.2c-.391,2.332-1.551,3.92-2.864,3.92H2.085c-1.343,0-2.3-2.415-1.913-4.805l3.8-23.156C4.352,1.6,5.517,0,6.837,0Z" transform="translate(-0.084)" fill="#f8285a"/>
</svg>
